<svg width="23" height="23" viewBox="0 0 23 23" fill="none" xmlns="http://www.w3.org/2000/svg">
<path d="M17.25 20.125C18.8378 20.125 20.125 18.8378 20.125 17.25C20.125 15.6622 18.8378 14.375 17.25 14.375C15.6622 14.375 14.375 15.6622 14.375 17.25C14.375 18.8378 15.6622 20.125 17.25 20.125Z" stroke="#E40EB9" stroke-linecap="round" stroke-linejoin="round"/>
<path d="M5.75 8.625C7.33782 8.625 8.625 7.33782 8.625 5.75C8.625 4.16218 7.33782 2.875 5.75 2.875C4.16218 2.875 2.875 4.16218 2.875 5.75C2.875 7.33782 4.16218 8.625 5.75 8.625Z" stroke="#E40EB9" stroke-linecap="round" stroke-linejoin="round"/>
<path d="M5.75 20.125V8.625C5.75 10.9125 6.6587 13.1063 8.2762 14.7238C9.8937 16.3413 12.0875 17.25 14.375 17.25" stroke="#E40EB9" stroke-linecap="round" stroke-linejoin="round"/>
</svg>
