<svg width="687" height="389" viewBox="0 0 687 389" fill="none" xmlns="http://www.w3.org/2000/svg">
<g filter="url(#filter0_d_60_43)">
<rect x="10" y="10" width="667" height="369" rx="20" fill="#1D1D1D"/>
</g>
<path d="M10 30C10 18.9543 18.9543 10 30 10H657C668.046 10 677 18.9543 677 30V43H10V30Z" fill="#121212"/>
<circle cx="26.5" cy="25.5" r="6.5" fill="#FE5F57"/>
<circle cx="46.5" cy="25.5" r="6.5" fill="#FFA857"/>
<circle cx="66.5" cy="25.5" r="6.5" fill="#28C83F"/>
<path d="M84.52 29L82.79 26.08H81.5V29H80.8V22.01H82.9C83.68 22.01 84.27 22.1967 84.67 22.57C85.0767 22.9433 85.28 23.4333 85.28 24.04C85.28 24.5467 85.1333 24.98 84.84 25.34C84.5533 25.6933 84.1267 25.9233 83.56 26.03L85.36 29H84.52ZM81.5 25.51H82.91C83.4567 25.51 83.8667 25.3767 84.14 25.11C84.42 24.8433 84.56 24.4867 84.56 24.04C84.56 23.58 84.4267 23.2267 84.16 22.98C83.8933 22.7267 83.4733 22.6 82.9 22.6H81.5V25.51ZM87.3691 22.58V25.19H90.0191V25.77H87.3691V28.42H90.3191V29H86.6691V22H90.3191V22.58H87.3691ZM95.7484 27.34H92.5684L91.9584 29H91.2184L93.7684 22.1H94.5584L97.0984 29H96.3584L95.7484 27.34ZM95.5384 26.76L94.1584 22.98L92.7784 26.76H95.5384ZM100.292 22.01C101.065 22.01 101.729 22.15 102.282 22.43C102.835 22.71 103.259 23.1133 103.552 23.64C103.845 24.1667 103.992 24.7933 103.992 25.52C103.992 26.24 103.845 26.8633 103.552 27.39C103.259 27.91 102.835 28.31 102.282 28.59C101.729 28.8633 101.065 29 100.292 29H98.2219V22.01H100.292ZM100.292 28.42C101.265 28.42 102.005 28.1667 102.512 27.66C103.025 27.1467 103.282 26.4333 103.282 25.52C103.282 24.6 103.025 23.8833 102.512 23.37C102.005 22.85 101.265 22.59 100.292 22.59H98.9219V28.42H100.292ZM112.112 22.1V29H111.412V23.49L108.952 29H108.442L105.982 23.51V29H105.282V22.1H106.022L108.692 28.08L111.362 22.1H112.112ZM114.4 22.58V25.19H117.05V25.77H114.4V28.42H117.35V29H113.7V22H117.35V22.58H114.4ZM123.88 29.35V30H118.79V29.35H123.88ZM131.968 23.44C132.608 23.44 133.128 23.6433 133.528 24.05C133.935 24.45 134.138 25.0333 134.138 25.8V29H133.448V25.88C133.448 25.2867 133.305 24.8333 133.018 24.52C132.731 24.2067 132.341 24.05 131.848 24.05C131.335 24.05 130.925 24.22 130.618 24.56C130.311 24.9 130.158 25.3933 130.158 26.04V29H129.468V25.88C129.468 25.2867 129.325 24.8333 129.038 24.52C128.751 24.2067 128.358 24.05 127.858 24.05C127.345 24.05 126.935 24.22 126.628 24.56C126.321 24.9 126.168 25.3933 126.168 26.04V29H125.468V23.54H126.168V24.48C126.341 24.14 126.588 23.8833 126.908 23.71C127.228 23.53 127.585 23.44 127.978 23.44C128.451 23.44 128.865 23.5533 129.218 23.78C129.578 24.0067 129.838 24.34 129.998 24.78C130.145 24.3467 130.395 24.0167 130.748 23.79C131.108 23.5567 131.515 23.44 131.968 23.44ZM135.373 26.26C135.373 25.7 135.483 25.21 135.703 24.79C135.929 24.3633 136.239 24.0367 136.633 23.81C137.033 23.5767 137.483 23.46 137.983 23.46C138.503 23.46 138.949 23.58 139.323 23.82C139.703 24.06 139.976 24.3667 140.143 24.74V23.54H140.843V29H140.143V27.79C139.969 28.1633 139.693 28.4733 139.313 28.72C138.939 28.96 138.493 29.08 137.973 29.08C137.479 29.08 137.033 28.9633 136.633 28.73C136.239 28.4967 135.929 28.1667 135.703 27.74C135.483 27.3133 135.373 26.82 135.373 26.26ZM140.143 26.27C140.143 25.83 140.053 25.4433 139.873 25.11C139.693 24.7767 139.446 24.52 139.133 24.34C138.826 24.16 138.486 24.07 138.113 24.07C137.726 24.07 137.379 24.1567 137.073 24.33C136.766 24.5033 136.523 24.7567 136.343 25.09C136.169 25.4167 136.083 25.8067 136.083 26.26C136.083 26.7067 136.169 27.1 136.343 27.44C136.523 27.7733 136.766 28.03 137.073 28.21C137.379 28.3833 137.726 28.47 138.113 28.47C138.486 28.47 138.826 28.38 139.133 28.2C139.446 28.02 139.693 27.7633 139.873 27.43C140.053 27.0967 140.143 26.71 140.143 26.27ZM142.121 26.26C142.121 25.7 142.234 25.21 142.461 24.79C142.687 24.3633 142.997 24.0367 143.391 23.81C143.791 23.5767 144.241 23.46 144.741 23.46C145.221 23.46 145.654 23.5767 146.041 23.81C146.427 24.0433 146.711 24.3467 146.891 24.72V21.6H147.591V29H146.891V27.78C146.724 28.16 146.451 28.4733 146.071 28.72C145.691 28.96 145.244 29.08 144.731 29.08C144.231 29.08 143.781 28.9633 143.381 28.73C142.987 28.4967 142.677 28.1667 142.451 27.74C142.231 27.3133 142.121 26.82 142.121 26.26ZM146.891 26.27C146.891 25.83 146.801 25.4433 146.621 25.11C146.441 24.7767 146.194 24.52 145.881 24.34C145.574 24.16 145.234 24.07 144.861 24.07C144.474 24.07 144.127 24.1567 143.821 24.33C143.514 24.5033 143.271 24.7567 143.091 25.09C142.917 25.4167 142.831 25.8067 142.831 26.26C142.831 26.7067 142.917 27.1 143.091 27.44C143.271 27.7733 143.514 28.03 143.821 28.21C144.127 28.3833 144.474 28.47 144.861 28.47C145.234 28.47 145.574 28.38 145.881 28.2C146.194 28.02 146.441 27.7633 146.621 27.43C146.801 27.0967 146.891 26.71 146.891 26.27ZM154.129 25.99C154.129 26.23 154.122 26.4133 154.109 26.54H149.579C149.599 26.9533 149.699 27.3067 149.879 27.6C150.059 27.8933 150.295 28.1167 150.589 28.27C150.882 28.4167 151.202 28.49 151.549 28.49C152.002 28.49 152.382 28.38 152.689 28.16C153.002 27.94 153.209 27.6433 153.309 27.27H154.049C153.915 27.8033 153.629 28.24 153.189 28.58C152.755 28.9133 152.209 29.08 151.549 29.08C151.035 29.08 150.575 28.9667 150.169 28.74C149.762 28.5067 149.442 28.18 149.209 27.76C148.982 27.3333 148.869 26.8367 148.869 26.27C148.869 25.7033 148.982 25.2067 149.209 24.78C149.435 24.3533 149.752 24.0267 150.159 23.8C150.565 23.5733 151.029 23.46 151.549 23.46C152.069 23.46 152.522 23.5733 152.909 23.8C153.302 24.0267 153.602 24.3333 153.809 24.72C154.022 25.1 154.129 25.5233 154.129 25.99ZM153.419 25.97C153.425 25.5633 153.342 25.2167 153.169 24.93C153.002 24.6433 152.772 24.4267 152.479 24.28C152.185 24.1333 151.865 24.06 151.519 24.06C150.999 24.06 150.555 24.2267 150.189 24.56C149.822 24.8933 149.619 25.3633 149.579 25.97H153.419ZM160.559 29.35V30H155.469V29.35H160.559ZM169.348 23.54L167.638 29H166.938L165.428 24.42L163.918 29H163.208L161.498 23.54H162.208L163.568 28.29L165.098 23.54H165.798L167.308 28.3L168.658 23.54H169.348ZM170.652 22.51C170.512 22.51 170.392 22.46 170.292 22.36C170.192 22.26 170.142 22.1367 170.142 21.99C170.142 21.8433 170.192 21.7233 170.292 21.63C170.392 21.53 170.512 21.48 170.652 21.48C170.792 21.48 170.912 21.53 171.012 21.63C171.112 21.7233 171.162 21.8433 171.162 21.99C171.162 22.1367 171.112 22.26 171.012 22.36C170.912 22.46 170.792 22.51 170.652 22.51ZM171.002 23.54V29H170.302V23.54H171.002ZM173.497 24.13V27.52C173.497 27.8533 173.56 28.0833 173.687 28.21C173.814 28.3367 174.037 28.4 174.357 28.4H174.997V29H174.247C173.754 29 173.387 28.8867 173.147 28.66C172.907 28.4267 172.787 28.0467 172.787 27.52V24.13H172.027V23.54H172.787V22.17H173.497V23.54H174.997V24.13H173.497ZM178.752 23.44C179.165 23.44 179.535 23.5267 179.862 23.7C180.195 23.8733 180.455 24.14 180.642 24.5C180.835 24.8533 180.932 25.2867 180.932 25.8V29H180.242V25.88C180.242 25.2867 180.092 24.8333 179.792 24.52C179.498 24.2067 179.095 24.05 178.582 24.05C178.055 24.05 177.635 24.2167 177.322 24.55C177.008 24.8833 176.852 25.3733 176.852 26.02V29H176.152V21.6H176.852V24.47C177.025 24.1433 177.278 23.89 177.612 23.71C177.952 23.53 178.332 23.44 178.752 23.44ZM184.87 29.08C184.356 29.08 183.893 28.9667 183.48 28.74C183.073 28.5067 182.75 28.18 182.51 27.76C182.276 27.3333 182.16 26.8367 182.16 26.27C182.16 25.7033 182.28 25.21 182.52 24.79C182.76 24.3633 183.086 24.0367 183.5 23.81C183.913 23.5767 184.376 23.46 184.89 23.46C185.403 23.46 185.866 23.5767 186.28 23.81C186.7 24.0367 187.026 24.3633 187.26 24.79C187.5 25.21 187.62 25.7033 187.62 26.27C187.62 26.83 187.5 27.3233 187.26 27.75C187.02 28.1767 186.69 28.5067 186.27 28.74C185.85 28.9667 185.383 29.08 184.87 29.08ZM184.87 28.47C185.23 28.47 185.563 28.39 185.87 28.23C186.176 28.0633 186.423 27.8167 186.61 27.49C186.803 27.1567 186.9 26.75 186.9 26.27C186.9 25.79 186.806 25.3867 186.62 25.06C186.433 24.7267 186.186 24.48 185.88 24.32C185.573 24.1533 185.24 24.07 184.88 24.07C184.52 24.07 184.186 24.1533 183.88 24.32C183.573 24.48 183.326 24.7267 183.14 25.06C182.96 25.3867 182.87 25.79 182.87 26.27C182.87 26.75 182.96 27.1567 183.14 27.49C183.326 27.8167 183.57 28.0633 183.87 28.23C184.176 28.39 184.51 28.47 184.87 28.47ZM193.626 23.54V29H192.926V28.04C192.766 28.38 192.519 28.64 192.186 28.82C191.852 29 191.479 29.09 191.066 29.09C190.412 29.09 189.879 28.89 189.466 28.49C189.052 28.0833 188.846 27.4967 188.846 26.73V23.54H189.536V26.65C189.536 27.2433 189.682 27.6967 189.976 28.01C190.276 28.3233 190.682 28.48 191.196 28.48C191.722 28.48 192.142 28.3133 192.456 27.98C192.769 27.6467 192.926 27.1567 192.926 26.51V23.54H193.626ZM196.134 24.13V27.52C196.134 27.8533 196.197 28.0833 196.324 28.21C196.45 28.3367 196.674 28.4 196.994 28.4H197.634V29H196.884C196.39 29 196.024 28.8867 195.784 28.66C195.544 28.4267 195.424 28.0467 195.424 27.52V24.13H194.664V23.54H195.424V22.17H196.134V23.54H197.634V24.13H196.134ZM203.938 29.35V30H198.848V29.35H203.938ZM207.817 23.46C208.33 23.46 208.777 23.58 209.157 23.82C209.537 24.06 209.81 24.3633 209.977 24.73V23.54H210.677V29.14C210.677 29.64 210.567 30.0833 210.347 30.47C210.133 30.8567 209.833 31.1533 209.447 31.36C209.06 31.5733 208.62 31.68 208.127 31.68C207.427 31.68 206.843 31.5133 206.377 31.18C205.917 30.8467 205.63 30.3933 205.517 29.82H206.207C206.327 30.2 206.553 30.5033 206.887 30.73C207.227 30.9567 207.64 31.07 208.127 31.07C208.48 31.07 208.797 30.9933 209.077 30.84C209.357 30.6933 209.577 30.4733 209.737 30.18C209.897 29.8867 209.977 29.54 209.977 29.14V27.79C209.803 28.1633 209.527 28.4733 209.147 28.72C208.773 28.96 208.33 29.08 207.817 29.08C207.317 29.08 206.867 28.9633 206.467 28.73C206.073 28.4967 205.763 28.1667 205.537 27.74C205.317 27.3133 205.207 26.82 205.207 26.26C205.207 25.7 205.317 25.21 205.537 24.79C205.763 24.3633 206.073 24.0367 206.467 23.81C206.867 23.5767 207.317 23.46 207.817 23.46ZM209.977 26.27C209.977 25.83 209.887 25.4433 209.707 25.11C209.527 24.7767 209.28 24.52 208.967 24.34C208.66 24.16 208.32 24.07 207.947 24.07C207.56 24.07 207.213 24.1567 206.907 24.33C206.6 24.5033 206.357 24.7567 206.177 25.09C206.003 25.4167 205.917 25.8067 205.917 26.26C205.917 26.7067 206.003 27.1 206.177 27.44C206.357 27.7733 206.6 28.03 206.907 28.21C207.213 28.3833 207.56 28.47 207.947 28.47C208.32 28.47 208.66 28.38 208.967 28.2C209.28 28.02 209.527 27.7633 209.707 27.43C209.887 27.0967 209.977 26.71 209.977 26.27ZM212.625 22.51C212.485 22.51 212.365 22.46 212.265 22.36C212.165 22.26 212.115 22.1367 212.115 21.99C212.115 21.8433 212.165 21.7233 212.265 21.63C212.365 21.53 212.485 21.48 212.625 21.48C212.765 21.48 212.885 21.53 212.985 21.63C213.085 21.7233 213.135 21.8433 213.135 21.99C213.135 22.1367 213.085 22.26 212.985 22.36C212.885 22.46 212.765 22.51 212.625 22.51ZM212.975 23.54V29H212.275V23.54H212.975ZM215.47 24.13V27.52C215.47 27.8533 215.533 28.0833 215.66 28.21C215.786 28.3367 216.01 28.4 216.33 28.4H216.97V29H216.22C215.726 29 215.36 28.8867 215.12 28.66C214.88 28.4267 214.76 28.0467 214.76 27.52V24.13H214V23.54H214.76V22.17H215.47V23.54H216.97V24.13H215.47ZM224.624 23.44C225.264 23.44 225.784 23.6433 226.184 24.05C226.591 24.45 226.794 25.0333 226.794 25.8V29H226.104V25.88C226.104 25.2867 225.961 24.8333 225.674 24.52C225.388 24.2067 224.998 24.05 224.504 24.05C223.991 24.05 223.581 24.22 223.274 24.56C222.968 24.9 222.814 25.3933 222.814 26.04V29H222.124V25.88C222.124 25.2867 221.981 24.8333 221.694 24.52C221.408 24.2067 221.014 24.05 220.514 24.05C220.001 24.05 219.591 24.22 219.284 24.56C218.978 24.9 218.824 25.3933 218.824 26.04V29H218.124V23.54H218.824V24.48C218.998 24.14 219.244 23.8833 219.564 23.71C219.884 23.53 220.241 23.44 220.634 23.44C221.108 23.44 221.521 23.5533 221.874 23.78C222.234 24.0067 222.494 24.34 222.654 24.78C222.801 24.3467 223.051 24.0167 223.404 23.79C223.764 23.5567 224.171 23.44 224.624 23.44ZM228.029 26.26C228.029 25.7 228.139 25.21 228.359 24.79C228.585 24.3633 228.895 24.0367 229.289 23.81C229.689 23.5767 230.139 23.46 230.639 23.46C231.159 23.46 231.605 23.58 231.979 23.82C232.359 24.06 232.632 24.3667 232.799 24.74V23.54H233.499V29H232.799V27.79C232.625 28.1633 232.349 28.4733 231.969 28.72C231.595 28.96 231.149 29.08 230.629 29.08C230.135 29.08 229.689 28.9633 229.289 28.73C228.895 28.4967 228.585 28.1667 228.359 27.74C228.139 27.3133 228.029 26.82 228.029 26.26ZM232.799 26.27C232.799 25.83 232.709 25.4433 232.529 25.11C232.349 24.7767 232.102 24.52 231.789 24.34C231.482 24.16 231.142 24.07 230.769 24.07C230.382 24.07 230.035 24.1567 229.729 24.33C229.422 24.5033 229.179 24.7567 228.999 25.09C228.825 25.4167 228.739 25.8067 228.739 26.26C228.739 26.7067 228.825 27.1 228.999 27.44C229.179 27.7733 229.422 28.03 229.729 28.21C230.035 28.3833 230.382 28.47 230.769 28.47C231.142 28.47 231.482 28.38 231.789 28.2C232.102 28.02 232.349 27.7633 232.529 27.43C232.709 27.0967 232.799 26.71 232.799 26.27ZM235.797 24.51C235.95 24.17 236.184 23.9067 236.497 23.72C236.817 23.5333 237.207 23.44 237.667 23.44V24.17H237.477C236.97 24.17 236.564 24.3067 236.257 24.58C235.95 24.8533 235.797 25.31 235.797 25.95V29H235.097V23.54H235.797V24.51ZM240.66 28.32L242.5 23.54H243.24L241.05 29H240.26L238.07 23.54H238.82L240.66 28.32ZM249.129 25.99C249.129 26.23 249.122 26.4133 249.109 26.54H244.579C244.599 26.9533 244.699 27.3067 244.879 27.6C245.059 27.8933 245.295 28.1167 245.589 28.27C245.882 28.4167 246.202 28.49 246.549 28.49C247.002 28.49 247.382 28.38 247.689 28.16C248.002 27.94 248.209 27.6433 248.309 27.27H249.049C248.915 27.8033 248.629 28.24 248.189 28.58C247.755 28.9133 247.209 29.08 246.549 29.08C246.035 29.08 245.575 28.9667 245.169 28.74C244.762 28.5067 244.442 28.18 244.209 27.76C243.982 27.3333 243.869 26.8367 243.869 26.27C243.869 25.7033 243.982 25.2067 244.209 24.78C244.435 24.3533 244.752 24.0267 245.159 23.8C245.565 23.5733 246.029 23.46 246.549 23.46C247.069 23.46 247.522 23.5733 247.909 23.8C248.302 24.0267 248.602 24.3333 248.809 24.72C249.022 25.1 249.129 25.5233 249.129 25.99ZM248.419 25.97C248.425 25.5633 248.342 25.2167 248.169 24.93C248.002 24.6433 247.772 24.4267 247.479 24.28C247.185 24.1333 246.865 24.06 246.519 24.06C245.999 24.06 245.555 24.2267 245.189 24.56C244.822 24.8933 244.619 25.3633 244.579 25.97H248.419ZM251.109 21.6V29H250.409V21.6H251.109ZM252.815 29.05C252.668 29.05 252.545 29 252.445 28.9C252.351 28.8 252.305 28.6767 252.305 28.53C252.305 28.3833 252.351 28.2633 252.445 28.17C252.545 28.07 252.668 28.02 252.815 28.02C252.955 28.02 253.071 28.07 253.165 28.17C253.265 28.2633 253.315 28.3833 253.315 28.53C253.315 28.6767 253.265 28.8 253.165 28.9C253.071 29 252.955 29.05 252.815 29.05ZM261.011 23.44C261.651 23.44 262.171 23.6433 262.571 24.05C262.978 24.45 263.181 25.0333 263.181 25.8V29H262.491V25.88C262.491 25.2867 262.348 24.8333 262.061 24.52C261.774 24.2067 261.384 24.05 260.891 24.05C260.378 24.05 259.968 24.22 259.661 24.56C259.354 24.9 259.201 25.3933 259.201 26.04V29H258.511V25.88C258.511 25.2867 258.368 24.8333 258.081 24.52C257.794 24.2067 257.401 24.05 256.901 24.05C256.388 24.05 255.978 24.22 255.671 24.56C255.364 24.9 255.211 25.3933 255.211 26.04V29H254.511V23.54H255.211V24.48C255.384 24.14 255.631 23.8833 255.951 23.71C256.271 23.53 256.628 23.44 257.021 23.44C257.494 23.44 257.908 23.5533 258.261 23.78C258.621 24.0067 258.881 24.34 259.041 24.78C259.188 24.3467 259.438 24.0167 259.791 23.79C260.151 23.5567 260.558 23.44 261.011 23.44ZM264.416 26.26C264.416 25.7 264.529 25.21 264.756 24.79C264.982 24.3633 265.292 24.0367 265.686 23.81C266.086 23.5767 266.536 23.46 267.036 23.46C267.516 23.46 267.949 23.5767 268.336 23.81C268.722 24.0433 269.006 24.3467 269.186 24.72V21.6H269.886V29H269.186V27.78C269.019 28.16 268.746 28.4733 268.366 28.72C267.986 28.96 267.539 29.08 267.026 29.08C266.526 29.08 266.076 28.9633 265.676 28.73C265.282 28.4967 264.972 28.1667 264.746 27.74C264.526 27.3133 264.416 26.82 264.416 26.26ZM269.186 26.27C269.186 25.83 269.096 25.4433 268.916 25.11C268.736 24.7767 268.489 24.52 268.176 24.34C267.869 24.16 267.529 24.07 267.156 24.07C266.769 24.07 266.422 24.1567 266.116 24.33C265.809 24.5033 265.566 24.7567 265.386 25.09C265.212 25.4167 265.126 25.8067 265.126 26.26C265.126 26.7067 265.212 27.1 265.386 27.44C265.566 27.7733 265.809 28.03 266.116 28.21C266.422 28.3833 266.769 28.47 267.156 28.47C267.529 28.47 267.869 28.38 268.176 28.2C268.489 28.02 268.736 27.7633 268.916 27.43C269.096 27.0967 269.186 26.71 269.186 26.27Z" fill="white"/>
<defs>
<filter id="filter0_d_60_43" x="0" y="0" width="687" height="389" filterUnits="userSpaceOnUse" color-interpolation-filters="sRGB">
<feFlood flood-opacity="0" result="BackgroundImageFix"/>
<feColorMatrix in="SourceAlpha" type="matrix" values="0 0 0 0 0 0 0 0 0 0 0 0 0 0 0 0 0 0 127 0" result="hardAlpha"/>
<feOffset/>
<feGaussianBlur stdDeviation="5"/>
<feComposite in2="hardAlpha" operator="out"/>
<feColorMatrix type="matrix" values="0 0 0 0 1 0 0 0 0 1 0 0 0 0 1 0 0 0 0.1 0"/>
<feBlend mode="normal" in2="BackgroundImageFix" result="effect1_dropShadow_60_43"/>
<feBlend mode="normal" in="SourceGraphic" in2="effect1_dropShadow_60_43" result="shape"/>
</filter>
</defs>
</svg>
