<svg width="158" height="19" viewBox="0 0 158 19" fill="none" xmlns="http://www.w3.org/2000/svg">
<path d="M9.71016 18.25C8.36016 18.25 7.11849 18.025 5.98516 17.575C4.86849 17.1083 3.90182 16.4667 3.08516 15.65C2.26849 14.8333 1.63516 13.875 1.18516 12.775C0.751823 11.675 0.535156 10.4833 0.535156 9.2C0.535156 7.91667 0.760156 6.73333 1.21016 5.65C1.67682 4.55 2.32682 3.6 3.16016 2.8C4.01016 1.98333 5.00182 1.35 6.13516 0.9C7.26849 0.449999 8.51016 0.224999 9.86016 0.224999C10.7935 0.224999 11.6852 0.349999 12.5352 0.599999C13.3852 0.849999 14.1602 1.19167 14.8602 1.625C15.5602 2.05833 16.1435 2.55833 16.6102 3.125L14.2852 5.575C13.8518 5.15833 13.3935 4.80833 12.9102 4.525C12.4435 4.225 11.9518 4 11.4352 3.85C10.9185 3.68333 10.3852 3.6 9.83516 3.6C9.05182 3.6 8.32682 3.74167 7.66016 4.025C7.01016 4.30833 6.43516 4.7 5.93516 5.2C5.43516 5.7 5.04349 6.29167 4.76016 6.975C4.49349 7.65833 4.36016 8.4 4.36016 9.2C4.36016 9.98333 4.50182 10.725 4.78516 11.425C5.08516 12.1083 5.48516 12.7083 5.98516 13.225C6.50182 13.725 7.10182 14.125 7.78516 14.425C8.46849 14.7083 9.20182 14.85 9.98516 14.85C10.5352 14.85 11.0602 14.7667 11.5602 14.6C12.0602 14.4333 12.4935 14.2 12.8602 13.9C13.2435 13.5833 13.5352 13.2167 13.7352 12.8C13.9518 12.3833 14.0602 11.9417 14.0602 11.475V10.875L14.5602 11.575H9.56016V8.45H17.6602C17.6768 8.63333 17.6935 8.85833 17.7102 9.125C17.7435 9.39167 17.7602 9.65833 17.7602 9.925C17.7768 10.175 17.7852 10.375 17.7852 10.525C17.7852 11.6583 17.5768 12.7 17.1602 13.65C16.7602 14.6 16.1935 15.4167 15.4602 16.1C14.7435 16.7833 13.8935 17.3167 12.9102 17.7C11.9268 18.0667 10.8602 18.25 9.71016 18.25ZM20.4002 18V14.775H23.3252V3.725H20.4002V0.499999H30.0002V3.725H27.0752V14.775H30.0002V18H20.4002ZM37.757 18V3.875H32.657V0.499999H46.757V3.875H41.507V18H37.757ZM49.8541 18V0.499999H53.2791L59.6541 10.875L57.4041 10.85L63.8541 0.499999H67.1291V18H63.4541V12C63.4541 10.5 63.4874 9.15 63.5541 7.95C63.6374 6.75 63.7708 5.55833 63.9541 4.375L64.4041 5.55L59.2791 13.5H57.6291L52.6041 5.6L53.0291 4.375C53.2124 5.49167 53.3374 6.64167 53.4041 7.825C53.4874 8.99167 53.5291 10.3833 53.5291 12V18H49.8541ZM69.6053 18L76.4553 0.499999H79.8053L86.6303 18H82.7803L79.2553 8.575C79.1553 8.30833 79.0303 7.96667 78.8803 7.55C78.7469 7.13333 78.6053 6.69167 78.4553 6.225C78.3053 5.75833 78.1636 5.31667 78.0303 4.9C77.8969 4.46667 77.7969 4.10833 77.7303 3.825L78.4053 3.8C78.3053 4.18333 78.1886 4.58333 78.0553 5C77.9386 5.4 77.8136 5.81667 77.6803 6.25C77.5469 6.66667 77.4053 7.075 77.2553 7.475C77.1053 7.875 76.9636 8.26667 76.8303 8.65L73.3053 18H69.6053ZM72.7803 14.325L74.0053 11.3H82.0303L83.2803 14.325H72.7803ZM89.0875 18V0.499999H96.8375C97.9208 0.499999 98.9042 0.749999 99.7875 1.25C100.671 1.73333 101.363 2.39167 101.863 3.225C102.379 4.05833 102.638 5.00833 102.638 6.075C102.638 7.125 102.379 8.08333 101.863 8.95C101.363 9.8 100.671 10.475 99.7875 10.975C98.9042 11.475 97.9208 11.725 96.8375 11.725H92.7125V18H89.0875ZM99.0125 18L94.5625 10.1L98.4125 9.475L103.363 18.025L99.0125 18ZM92.7125 8.675H96.6625C97.1125 8.675 97.5042 8.575 97.8375 8.375C98.1875 8.15833 98.4542 7.86667 98.6375 7.5C98.8208 7.11667 98.9125 6.69167 98.9125 6.225C98.9125 5.725 98.8042 5.29167 98.5875 4.925C98.3708 4.55833 98.0542 4.275 97.6375 4.075C97.2208 3.85833 96.7375 3.75 96.1875 3.75H92.7125V8.675ZM110.811 18L103.836 0.499999H107.811L111.461 9.975C111.661 10.4917 111.827 10.95 111.961 11.35C112.111 11.7333 112.236 12.1 112.336 12.45C112.452 12.7833 112.561 13.1167 112.661 13.45C112.761 13.7667 112.861 14.1167 112.961 14.5L112.236 14.525C112.369 14.0083 112.502 13.5333 112.636 13.1C112.769 12.65 112.919 12.1833 113.086 11.7C113.252 11.2167 113.461 10.6417 113.711 9.975L117.161 0.499999H121.111L114.086 18H110.811ZM123.658 18V0.499999H135.483V3.8H127.308V14.7H135.658V18H123.658ZM125.408 10.675V7.475H134.283V10.675H125.408ZM139.527 18V0.499999H143.277V14.625H151.202V18H139.527ZM155.513 18.275C154.863 18.275 154.363 18.0917 154.013 17.725C153.663 17.3583 153.488 16.8333 153.488 16.15C153.488 15.5333 153.671 15.0333 154.038 14.65C154.421 14.25 154.913 14.05 155.513 14.05C156.146 14.05 156.638 14.2333 156.988 14.6C157.338 14.9667 157.513 15.4833 157.513 16.15C157.513 16.7833 157.33 17.3 156.963 17.7C156.596 18.0833 156.113 18.275 155.513 18.275Z" fill="#E40EB9"/>
</svg>
