<svg width="42" height="42" viewBox="0 0 42 42" fill="none" xmlns="http://www.w3.org/2000/svg">
<path d="M10.6823 29.25C9.33232 29.25 8.09066 29.025 6.95732 28.575C5.84066 28.1083 4.87399 27.4667 4.05732 26.65C3.24066 25.8333 2.60732 24.875 2.15732 23.775C1.72399 22.675 1.50732 21.4833 1.50732 20.2C1.50732 18.9167 1.73232 17.7333 2.18232 16.65C2.64899 15.55 3.29899 14.6 4.13232 13.8C4.98232 12.9833 5.97399 12.35 7.10732 11.9C8.24066 11.45 9.48232 11.225 10.8323 11.225C11.7657 11.225 12.6573 11.35 13.5073 11.6C14.3573 11.85 15.1323 12.1917 15.8323 12.625C16.5323 13.0583 17.1157 13.5583 17.5823 14.125L15.2573 16.575C14.824 16.1583 14.3657 15.8083 13.8823 15.525C13.4157 15.225 12.924 15 12.4073 14.85C11.8907 14.6833 11.3573 14.6 10.8073 14.6C10.024 14.6 9.29899 14.7417 8.63232 15.025C7.98232 15.3083 7.40732 15.7 6.90732 16.2C6.40732 16.7 6.01566 17.2917 5.73232 17.975C5.46566 18.6583 5.33232 19.4 5.33232 20.2C5.33232 20.9833 5.47399 21.725 5.75732 22.425C6.05732 23.1083 6.45732 23.7083 6.95732 24.225C7.47399 24.725 8.07399 25.125 8.75732 25.425C9.44066 25.7083 10.174 25.85 10.9573 25.85C11.5073 25.85 12.0323 25.7667 12.5323 25.6C13.0323 25.4333 13.4657 25.2 13.8323 24.9C14.2157 24.5833 14.5073 24.2167 14.7073 23.8C14.924 23.3833 15.0323 22.9417 15.0323 22.475V21.875L15.5323 22.575H10.5323V19.45H18.6323C18.649 19.6333 18.6657 19.8583 18.6823 20.125C18.7157 20.3917 18.7323 20.6583 18.7323 20.925C18.749 21.175 18.7573 21.375 18.7573 21.525C18.7573 22.6583 18.549 23.7 18.1323 24.65C17.7323 25.6 17.1657 26.4167 16.4323 27.1C15.7157 27.7833 14.8657 28.3167 13.8823 28.7C12.899 29.0667 11.8323 29.25 10.6823 29.25ZM22.0665 29V11.5H25.4915L31.8665 21.875L29.6165 21.85L36.0665 11.5H39.3415V29H35.6665V23C35.6665 21.5 35.6998 20.15 35.7665 18.95C35.8498 17.75 35.9832 16.5583 36.1665 15.375L36.6165 16.55L31.4915 24.5H29.8415L24.8165 16.6L25.2415 15.375C25.4248 16.4917 25.5498 17.6417 25.6165 18.825C25.6998 19.9917 25.7415 21.3833 25.7415 23V29H22.0665Z" fill="#E40EB9"/>
</svg>
