<svg width="687" height="389" viewBox="0 0 687 389" fill="none" xmlns="http://www.w3.org/2000/svg">
<g filter="url(#filter0_d_59_9)">
<rect x="10" y="10" width="667" height="369" rx="20" fill="#1D1D1D"/>
</g>
<path d="M10 30C10 18.9543 18.9543 10 30 10H657C668.046 10 677 18.9543 677 30V43H10V30Z" fill="#121212"/>
<circle cx="26.5" cy="25.5" r="6.5" fill="#FE5F57"/>
<circle cx="46.5" cy="25.5" r="6.5" fill="#FFA857"/>
<circle cx="66.5" cy="25.5" r="6.5" fill="#28C83F"/>
<path d="M84.52 29L82.79 26.08H81.5V29H80.8V22.01H82.9C83.68 22.01 84.27 22.1967 84.67 22.57C85.0767 22.9433 85.28 23.4333 85.28 24.04C85.28 24.5467 85.1333 24.98 84.84 25.34C84.5533 25.6933 84.1267 25.9233 83.56 26.03L85.36 29H84.52ZM81.5 25.51H82.91C83.4567 25.51 83.8667 25.3767 84.14 25.11C84.42 24.8433 84.56 24.4867 84.56 24.04C84.56 23.58 84.4267 23.2267 84.16 22.98C83.8933 22.7267 83.4733 22.6 82.9 22.6H81.5V25.51ZM87.3691 22.58V25.19H90.0191V25.77H87.3691V28.42H90.3191V29H86.6691V22H90.3191V22.58H87.3691ZM95.7484 27.34H92.5684L91.9584 29H91.2184L93.7684 22.1H94.5584L97.0984 29H96.3584L95.7484 27.34ZM95.5384 26.76L94.1584 22.98L92.7784 26.76H95.5384ZM100.292 22.01C101.065 22.01 101.729 22.15 102.282 22.43C102.835 22.71 103.259 23.1133 103.552 23.64C103.845 24.1667 103.992 24.7933 103.992 25.52C103.992 26.24 103.845 26.8633 103.552 27.39C103.259 27.91 102.835 28.31 102.282 28.59C101.729 28.8633 101.065 29 100.292 29H98.2219V22.01H100.292ZM100.292 28.42C101.265 28.42 102.005 28.1667 102.512 27.66C103.025 27.1467 103.282 26.4333 103.282 25.52C103.282 24.6 103.025 23.8833 102.512 23.37C102.005 22.85 101.265 22.59 100.292 22.59H98.9219V28.42H100.292ZM112.112 22.1V29H111.412V23.49L108.952 29H108.442L105.982 23.51V29H105.282V22.1H106.022L108.692 28.08L111.362 22.1H112.112ZM114.4 22.58V25.19H117.05V25.77H114.4V28.42H117.35V29H113.7V22H117.35V22.58H114.4ZM123.88 29.35V30H118.79V29.35H123.88ZM131.968 23.44C132.608 23.44 133.128 23.6433 133.528 24.05C133.935 24.45 134.138 25.0333 134.138 25.8V29H133.448V25.88C133.448 25.2867 133.305 24.8333 133.018 24.52C132.731 24.2067 132.341 24.05 131.848 24.05C131.335 24.05 130.925 24.22 130.618 24.56C130.311 24.9 130.158 25.3933 130.158 26.04V29H129.468V25.88C129.468 25.2867 129.325 24.8333 129.038 24.52C128.751 24.2067 128.358 24.05 127.858 24.05C127.345 24.05 126.935 24.22 126.628 24.56C126.321 24.9 126.168 25.3933 126.168 26.04V29H125.468V23.54H126.168V24.48C126.341 24.14 126.588 23.8833 126.908 23.71C127.228 23.53 127.585 23.44 127.978 23.44C128.451 23.44 128.865 23.5533 129.218 23.78C129.578 24.0067 129.838 24.34 129.998 24.78C130.145 24.3467 130.395 24.0167 130.748 23.79C131.108 23.5567 131.515 23.44 131.968 23.44ZM135.373 26.26C135.373 25.7 135.483 25.21 135.703 24.79C135.929 24.3633 136.239 24.0367 136.633 23.81C137.033 23.5767 137.483 23.46 137.983 23.46C138.503 23.46 138.949 23.58 139.323 23.82C139.703 24.06 139.976 24.3667 140.143 24.74V23.54H140.843V29H140.143V27.79C139.969 28.1633 139.693 28.4733 139.313 28.72C138.939 28.96 138.493 29.08 137.973 29.08C137.479 29.08 137.033 28.9633 136.633 28.73C136.239 28.4967 135.929 28.1667 135.703 27.74C135.483 27.3133 135.373 26.82 135.373 26.26ZM140.143 26.27C140.143 25.83 140.053 25.4433 139.873 25.11C139.693 24.7767 139.446 24.52 139.133 24.34C138.826 24.16 138.486 24.07 138.113 24.07C137.726 24.07 137.379 24.1567 137.073 24.33C136.766 24.5033 136.523 24.7567 136.343 25.09C136.169 25.4167 136.083 25.8067 136.083 26.26C136.083 26.7067 136.169 27.1 136.343 27.44C136.523 27.7733 136.766 28.03 137.073 28.21C137.379 28.3833 137.726 28.47 138.113 28.47C138.486 28.47 138.826 28.38 139.133 28.2C139.446 28.02 139.693 27.7633 139.873 27.43C140.053 27.0967 140.143 26.71 140.143 26.27ZM142.121 26.26C142.121 25.7 142.234 25.21 142.461 24.79C142.687 24.3633 142.997 24.0367 143.391 23.81C143.791 23.5767 144.241 23.46 144.741 23.46C145.221 23.46 145.654 23.5767 146.041 23.81C146.427 24.0433 146.711 24.3467 146.891 24.72V21.6H147.591V29H146.891V27.78C146.724 28.16 146.451 28.4733 146.071 28.72C145.691 28.96 145.244 29.08 144.731 29.08C144.231 29.08 143.781 28.9633 143.381 28.73C142.987 28.4967 142.677 28.1667 142.451 27.74C142.231 27.3133 142.121 26.82 142.121 26.26ZM146.891 26.27C146.891 25.83 146.801 25.4433 146.621 25.11C146.441 24.7767 146.194 24.52 145.881 24.34C145.574 24.16 145.234 24.07 144.861 24.07C144.474 24.07 144.127 24.1567 143.821 24.33C143.514 24.5033 143.271 24.7567 143.091 25.09C142.917 25.4167 142.831 25.8067 142.831 26.26C142.831 26.7067 142.917 27.1 143.091 27.44C143.271 27.7733 143.514 28.03 143.821 28.21C144.127 28.3833 144.474 28.47 144.861 28.47C145.234 28.47 145.574 28.38 145.881 28.2C146.194 28.02 146.441 27.7633 146.621 27.43C146.801 27.0967 146.891 26.71 146.891 26.27ZM154.129 25.99C154.129 26.23 154.122 26.4133 154.109 26.54H149.579C149.599 26.9533 149.699 27.3067 149.879 27.6C150.059 27.8933 150.295 28.1167 150.589 28.27C150.882 28.4167 151.202 28.49 151.549 28.49C152.002 28.49 152.382 28.38 152.689 28.16C153.002 27.94 153.209 27.6433 153.309 27.27H154.049C153.915 27.8033 153.629 28.24 153.189 28.58C152.755 28.9133 152.209 29.08 151.549 29.08C151.035 29.08 150.575 28.9667 150.169 28.74C149.762 28.5067 149.442 28.18 149.209 27.76C148.982 27.3333 148.869 26.8367 148.869 26.27C148.869 25.7033 148.982 25.2067 149.209 24.78C149.435 24.3533 149.752 24.0267 150.159 23.8C150.565 23.5733 151.029 23.46 151.549 23.46C152.069 23.46 152.522 23.5733 152.909 23.8C153.302 24.0267 153.602 24.3333 153.809 24.72C154.022 25.1 154.129 25.5233 154.129 25.99ZM153.419 25.97C153.425 25.5633 153.342 25.2167 153.169 24.93C153.002 24.6433 152.772 24.4267 152.479 24.28C152.185 24.1333 151.865 24.06 151.519 24.06C150.999 24.06 150.555 24.2267 150.189 24.56C149.822 24.8933 149.619 25.3633 149.579 25.97H153.419ZM160.559 29.35V30H155.469V29.35H160.559ZM169.348 23.54L167.638 29H166.938L165.428 24.42L163.918 29H163.208L161.498 23.54H162.208L163.568 28.29L165.098 23.54H165.798L167.308 28.3L168.658 23.54H169.348ZM170.652 22.51C170.512 22.51 170.392 22.46 170.292 22.36C170.192 22.26 170.142 22.1367 170.142 21.99C170.142 21.8433 170.192 21.7233 170.292 21.63C170.392 21.53 170.512 21.48 170.652 21.48C170.792 21.48 170.912 21.53 171.012 21.63C171.112 21.7233 171.162 21.8433 171.162 21.99C171.162 22.1367 171.112 22.26 171.012 22.36C170.912 22.46 170.792 22.51 170.652 22.51ZM171.002 23.54V29H170.302V23.54H171.002ZM173.497 24.13V27.52C173.497 27.8533 173.56 28.0833 173.687 28.21C173.814 28.3367 174.037 28.4 174.357 28.4H174.997V29H174.247C173.754 29 173.387 28.8867 173.147 28.66C172.907 28.4267 172.787 28.0467 172.787 27.52V24.13H172.027V23.54H172.787V22.17H173.497V23.54H174.997V24.13H173.497ZM178.752 23.44C179.165 23.44 179.535 23.5267 179.862 23.7C180.195 23.8733 180.455 24.14 180.642 24.5C180.835 24.8533 180.932 25.2867 180.932 25.8V29H180.242V25.88C180.242 25.2867 180.092 24.8333 179.792 24.52C179.498 24.2067 179.095 24.05 178.582 24.05C178.055 24.05 177.635 24.2167 177.322 24.55C177.008 24.8833 176.852 25.3733 176.852 26.02V29H176.152V21.6H176.852V24.47C177.025 24.1433 177.278 23.89 177.612 23.71C177.952 23.53 178.332 23.44 178.752 23.44ZM187.63 29.35V30H182.54V29.35H187.63ZM191.508 23.46C192.021 23.46 192.468 23.58 192.848 23.82C193.228 24.06 193.501 24.3633 193.668 24.73V23.54H194.368V29.14C194.368 29.64 194.258 30.0833 194.038 30.47C193.825 30.8567 193.525 31.1533 193.138 31.36C192.751 31.5733 192.311 31.68 191.818 31.68C191.118 31.68 190.535 31.5133 190.068 31.18C189.608 30.8467 189.321 30.3933 189.208 29.82H189.898C190.018 30.2 190.245 30.5033 190.578 30.73C190.918 30.9567 191.331 31.07 191.818 31.07C192.171 31.07 192.488 30.9933 192.768 30.84C193.048 30.6933 193.268 30.4733 193.428 30.18C193.588 29.8867 193.668 29.54 193.668 29.14V27.79C193.495 28.1633 193.218 28.4733 192.838 28.72C192.465 28.96 192.021 29.08 191.508 29.08C191.008 29.08 190.558 28.9633 190.158 28.73C189.765 28.4967 189.455 28.1667 189.228 27.74C189.008 27.3133 188.898 26.82 188.898 26.26C188.898 25.7 189.008 25.21 189.228 24.79C189.455 24.3633 189.765 24.0367 190.158 23.81C190.558 23.5767 191.008 23.46 191.508 23.46ZM193.668 26.27C193.668 25.83 193.578 25.4433 193.398 25.11C193.218 24.7767 192.971 24.52 192.658 24.34C192.351 24.16 192.011 24.07 191.638 24.07C191.251 24.07 190.905 24.1567 190.598 24.33C190.291 24.5033 190.048 24.7567 189.868 25.09C189.695 25.4167 189.608 25.8067 189.608 26.26C189.608 26.7067 189.695 27.1 189.868 27.44C190.048 27.7733 190.291 28.03 190.598 28.21C190.905 28.3833 191.251 28.47 191.638 28.47C192.011 28.47 192.351 28.38 192.658 28.2C192.971 28.02 193.218 27.7633 193.398 27.43C193.578 27.0967 193.668 26.71 193.668 26.27ZM196.316 22.51C196.176 22.51 196.056 22.46 195.956 22.36C195.856 22.26 195.806 22.1367 195.806 21.99C195.806 21.8433 195.856 21.7233 195.956 21.63C196.056 21.53 196.176 21.48 196.316 21.48C196.456 21.48 196.576 21.53 196.676 21.63C196.776 21.7233 196.826 21.8433 196.826 21.99C196.826 22.1367 196.776 22.26 196.676 22.36C196.576 22.46 196.456 22.51 196.316 22.51ZM196.666 23.54V29H195.966V23.54H196.666ZM199.161 24.13V27.52C199.161 27.8533 199.225 28.0833 199.351 28.21C199.478 28.3367 199.701 28.4 200.021 28.4H200.661V29H199.911C199.418 29 199.051 28.8867 198.811 28.66C198.571 28.4267 198.451 28.0467 198.451 27.52V24.13H197.691V23.54H198.451V22.17H199.161V23.54H200.661V24.13H199.161ZM208.316 23.44C208.956 23.44 209.476 23.6433 209.876 24.05C210.282 24.45 210.486 25.0333 210.486 25.8V29H209.796V25.88C209.796 25.2867 209.652 24.8333 209.366 24.52C209.079 24.2067 208.689 24.05 208.196 24.05C207.682 24.05 207.272 24.22 206.966 24.56C206.659 24.9 206.506 25.3933 206.506 26.04V29H205.816V25.88C205.816 25.2867 205.672 24.8333 205.386 24.52C205.099 24.2067 204.706 24.05 204.206 24.05C203.692 24.05 203.282 24.22 202.976 24.56C202.669 24.9 202.516 25.3933 202.516 26.04V29H201.816V23.54H202.516V24.48C202.689 24.14 202.936 23.8833 203.256 23.71C203.576 23.53 203.932 23.44 204.326 23.44C204.799 23.44 205.212 23.5533 205.566 23.78C205.926 24.0067 206.186 24.34 206.346 24.78C206.492 24.3467 206.742 24.0167 207.096 23.79C207.456 23.5567 207.862 23.44 208.316 23.44ZM211.72 26.26C211.72 25.7 211.83 25.21 212.05 24.79C212.277 24.3633 212.587 24.0367 212.98 23.81C213.38 23.5767 213.83 23.46 214.33 23.46C214.85 23.46 215.297 23.58 215.67 23.82C216.05 24.06 216.324 24.3667 216.49 24.74V23.54H217.19V29H216.49V27.79C216.317 28.1633 216.04 28.4733 215.66 28.72C215.287 28.96 214.84 29.08 214.32 29.08C213.827 29.08 213.38 28.9633 212.98 28.73C212.587 28.4967 212.277 28.1667 212.05 27.74C211.83 27.3133 211.72 26.82 211.72 26.26ZM216.49 26.27C216.49 25.83 216.4 25.4433 216.22 25.11C216.04 24.7767 215.794 24.52 215.48 24.34C215.174 24.16 214.834 24.07 214.46 24.07C214.074 24.07 213.727 24.1567 213.42 24.33C213.114 24.5033 212.87 24.7567 212.69 25.09C212.517 25.4167 212.43 25.8067 212.43 26.26C212.43 26.7067 212.517 27.1 212.69 27.44C212.87 27.7733 213.114 28.03 213.42 28.21C213.727 28.3833 214.074 28.47 214.46 28.47C214.834 28.47 215.174 28.38 215.48 28.2C215.794 28.02 216.04 27.7633 216.22 27.43C216.4 27.0967 216.49 26.71 216.49 26.27ZM219.488 24.51C219.642 24.17 219.875 23.9067 220.188 23.72C220.508 23.5333 220.898 23.44 221.358 23.44V24.17H221.168C220.662 24.17 220.255 24.3067 219.948 24.58C219.642 24.8533 219.488 25.31 219.488 25.95V29H218.788V23.54H219.488V24.51ZM224.351 28.32L226.191 23.54H226.931L224.741 29H223.951L221.761 23.54H222.511L224.351 28.32ZM232.82 25.99C232.82 26.23 232.813 26.4133 232.8 26.54H228.27C228.29 26.9533 228.39 27.3067 228.57 27.6C228.75 27.8933 228.987 28.1167 229.28 28.27C229.573 28.4167 229.893 28.49 230.24 28.49C230.693 28.49 231.073 28.38 231.38 28.16C231.693 27.94 231.9 27.6433 232 27.27H232.74C232.607 27.8033 232.32 28.24 231.88 28.58C231.447 28.9133 230.9 29.08 230.24 29.08C229.727 29.08 229.267 28.9667 228.86 28.74C228.453 28.5067 228.133 28.18 227.9 27.76C227.673 27.3333 227.56 26.8367 227.56 26.27C227.56 25.7033 227.673 25.2067 227.9 24.78C228.127 24.3533 228.443 24.0267 228.85 23.8C229.257 23.5733 229.72 23.46 230.24 23.46C230.76 23.46 231.213 23.5733 231.6 23.8C231.993 24.0267 232.293 24.3333 232.5 24.72C232.713 25.1 232.82 25.5233 232.82 25.99ZM232.11 25.97C232.117 25.5633 232.033 25.2167 231.86 24.93C231.693 24.6433 231.463 24.4267 231.17 24.28C230.877 24.1333 230.557 24.06 230.21 24.06C229.69 24.06 229.247 24.2267 228.88 24.56C228.513 24.8933 228.31 25.3633 228.27 25.97H232.11ZM234.801 21.6V29H234.101V21.6H234.801ZM236.506 29.05C236.359 29.05 236.236 29 236.136 28.9C236.043 28.8 235.996 28.6767 235.996 28.53C235.996 28.3833 236.043 28.2633 236.136 28.17C236.236 28.07 236.359 28.02 236.506 28.02C236.646 28.02 236.763 28.07 236.856 28.17C236.956 28.2633 237.006 28.3833 237.006 28.53C237.006 28.6767 236.956 28.8 236.856 28.9C236.763 29 236.646 29.05 236.506 29.05ZM244.702 23.44C245.342 23.44 245.862 23.6433 246.262 24.05C246.669 24.45 246.872 25.0333 246.872 25.8V29H246.182V25.88C246.182 25.2867 246.039 24.8333 245.752 24.52C245.466 24.2067 245.076 24.05 244.582 24.05C244.069 24.05 243.659 24.22 243.352 24.56C243.046 24.9 242.892 25.3933 242.892 26.04V29H242.202V25.88C242.202 25.2867 242.059 24.8333 241.772 24.52C241.486 24.2067 241.092 24.05 240.592 24.05C240.079 24.05 239.669 24.22 239.362 24.56C239.056 24.9 238.902 25.3933 238.902 26.04V29H238.202V23.54H238.902V24.48C239.076 24.14 239.322 23.8833 239.642 23.71C239.962 23.53 240.319 23.44 240.712 23.44C241.186 23.44 241.599 23.5533 241.952 23.78C242.312 24.0067 242.572 24.34 242.732 24.78C242.879 24.3467 243.129 24.0167 243.482 23.79C243.842 23.5567 244.249 23.44 244.702 23.44ZM248.107 26.26C248.107 25.7 248.22 25.21 248.447 24.79C248.674 24.3633 248.984 24.0367 249.377 23.81C249.777 23.5767 250.227 23.46 250.727 23.46C251.207 23.46 251.64 23.5767 252.027 23.81C252.414 24.0433 252.697 24.3467 252.877 24.72V21.6H253.577V29H252.877V27.78C252.71 28.16 252.437 28.4733 252.057 28.72C251.677 28.96 251.23 29.08 250.717 29.08C250.217 29.08 249.767 28.9633 249.367 28.73C248.974 28.4967 248.664 28.1667 248.437 27.74C248.217 27.3133 248.107 26.82 248.107 26.26ZM252.877 26.27C252.877 25.83 252.787 25.4433 252.607 25.11C252.427 24.7767 252.18 24.52 251.867 24.34C251.56 24.16 251.22 24.07 250.847 24.07C250.46 24.07 250.114 24.1567 249.807 24.33C249.5 24.5033 249.257 24.7567 249.077 25.09C248.904 25.4167 248.817 25.8067 248.817 26.26C248.817 26.7067 248.904 27.1 249.077 27.44C249.257 27.7733 249.5 28.03 249.807 28.21C250.114 28.3833 250.46 28.47 250.847 28.47C251.22 28.47 251.56 28.38 251.867 28.2C252.18 28.02 252.427 27.7633 252.607 27.43C252.787 27.0967 252.877 26.71 252.877 26.27Z" fill="white"/>
<defs>
<filter id="filter0_d_59_9" x="0" y="0" width="687" height="389" filterUnits="userSpaceOnUse" color-interpolation-filters="sRGB">
<feFlood flood-opacity="0" result="BackgroundImageFix"/>
<feColorMatrix in="SourceAlpha" type="matrix" values="0 0 0 0 0 0 0 0 0 0 0 0 0 0 0 0 0 0 127 0" result="hardAlpha"/>
<feOffset/>
<feGaussianBlur stdDeviation="5"/>
<feComposite in2="hardAlpha" operator="out"/>
<feColorMatrix type="matrix" values="0 0 0 0 1 0 0 0 0 1 0 0 0 0 1 0 0 0 0.1 0"/>
<feBlend mode="normal" in2="BackgroundImageFix" result="effect1_dropShadow_59_9"/>
<feBlend mode="normal" in="SourceGraphic" in2="effect1_dropShadow_59_9" result="shape"/>
</filter>
</defs>
</svg>
