<svg width="429" height="298" viewBox="0 0 429 298" fill="none" xmlns="http://www.w3.org/2000/svg">
<path d="M76.1143 1.5H180.5C190.717 1.5 199 9.78273 199 20V105C199 115.217 190.717 123.5 180.5 123.5H76.3893C71.7 123.5 67.1858 121.719 63.7594 118.518L17.0452 74.8726C9.09008 67.4401 9.24139 54.779 17.3719 47.5387L63.8111 6.18405C67.1991 3.16698 71.5777 1.5 76.1143 1.5Z" stroke="#E40EB9" stroke-width="3"/>
<path d="M252.5 1.5H356.034C361.039 1.5 365.832 3.52869 369.316 7.12289L412.763 51.9381C419.961 59.3623 419.675 71.2448 412.13 78.315L369.243 118.5C365.815 121.712 361.293 123.5 356.594 123.5H252.5C242.283 123.5 234 115.217 234 105V20C234 9.78274 242.283 1.5 252.5 1.5Z" stroke="#E40EB9" stroke-width="3"/>
<path d="M71.405 60.53C71.405 61.43 71.11 62.155 70.52 62.705C69.93 63.255 69.045 63.53 67.865 63.53H65.75V68H64.7V57.515H67.865C69.035 57.515 69.915 57.79 70.505 58.34C71.105 58.89 71.405 59.62 71.405 60.53ZM67.865 62.63C69.505 62.63 70.325 61.93 70.325 60.53C70.325 59.83 70.13 59.3 69.74 58.94C69.35 58.58 68.725 58.4 67.865 58.4H65.75V62.63H67.865ZM74.2168 61.265C74.4468 60.755 74.7968 60.36 75.2668 60.08C75.7468 59.8 76.3318 59.66 77.0218 59.66V60.755H76.7368C75.9768 60.755 75.3668 60.96 74.9068 61.37C74.4468 61.78 74.2168 62.465 74.2168 63.425V68H73.1668V59.81H74.2168V61.265ZM82.1864 68.12C81.4164 68.12 80.7214 67.95 80.1014 67.61C79.4914 67.26 79.0064 66.77 78.6464 66.14C78.2964 65.5 78.1214 64.755 78.1214 63.905C78.1214 63.055 78.3014 62.315 78.6614 61.685C79.0214 61.045 79.5114 60.555 80.1314 60.215C80.7514 59.865 81.4464 59.69 82.2164 59.69C82.9864 59.69 83.6814 59.865 84.3014 60.215C84.9314 60.555 85.4214 61.045 85.7714 61.685C86.1314 62.315 86.3114 63.055 86.3114 63.905C86.3114 64.745 86.1314 65.485 85.7714 66.125C85.4114 66.765 84.9164 67.26 84.2864 67.61C83.6564 67.95 82.9564 68.12 82.1864 68.12ZM82.1864 67.205C82.7264 67.205 83.2264 67.085 83.6864 66.845C84.1464 66.595 84.5164 66.225 84.7964 65.735C85.0864 65.235 85.2314 64.625 85.2314 63.905C85.2314 63.185 85.0914 62.58 84.8114 62.09C84.5314 61.59 84.1614 61.22 83.7014 60.98C83.2414 60.73 82.7414 60.605 82.2014 60.605C81.6614 60.605 81.1614 60.73 80.7014 60.98C80.2414 61.22 79.8714 61.59 79.5914 62.09C79.3214 62.58 79.1864 63.185 79.1864 63.905C79.1864 64.625 79.3214 65.235 79.5914 65.735C79.8714 66.225 80.2364 66.595 80.6864 66.845C81.1464 67.085 81.6464 67.205 82.1864 67.205ZM91.4504 60.695H89.5454V68H88.4954V60.695H87.3554V59.81H88.4954V59.24C88.4954 58.35 88.7204 57.695 89.1704 57.275C89.6304 56.855 90.3704 56.645 91.3904 56.645V57.545C90.7104 57.545 90.2304 57.675 89.9504 57.935C89.6804 58.195 89.5454 58.63 89.5454 59.24V59.81H91.4504V60.695ZM93.6283 58.265C93.4183 58.265 93.2383 58.19 93.0883 58.04C92.9383 57.89 92.8633 57.705 92.8633 57.485C92.8633 57.265 92.9383 57.085 93.0883 56.945C93.2383 56.795 93.4183 56.72 93.6283 56.72C93.8383 56.72 94.0183 56.795 94.1683 56.945C94.3183 57.085 94.3933 57.265 94.3933 57.485C94.3933 57.705 94.3183 57.89 94.1683 58.04C94.0183 58.19 93.8383 58.265 93.6283 58.265ZM94.1533 59.81V68H93.1033V59.81H94.1533ZM97.5811 56.9V68H96.5311V56.9H97.5811ZM107.369 63.485C107.369 63.845 107.359 64.12 107.339 64.31H100.544C100.574 64.93 100.724 65.46 100.994 65.9C101.264 66.34 101.619 66.675 102.059 66.905C102.499 67.125 102.979 67.235 103.499 67.235C104.179 67.235 104.749 67.07 105.209 66.74C105.679 66.41 105.989 65.965 106.139 65.405H107.249C107.049 66.205 106.619 66.86 105.959 67.37C105.309 67.87 104.489 68.12 103.499 68.12C102.729 68.12 102.039 67.95 101.429 67.61C100.819 67.26 100.339 66.77 99.9888 66.14C99.6488 65.5 99.4788 64.755 99.4788 63.905C99.4788 63.055 99.6488 62.31 99.9888 61.67C100.329 61.03 100.804 60.54 101.414 60.2C102.024 59.86 102.719 59.69 103.499 59.69C104.279 59.69 104.959 59.86 105.539 60.2C106.129 60.54 106.579 61 106.889 61.58C107.209 62.15 107.369 62.785 107.369 63.485ZM106.304 63.455C106.314 62.845 106.189 62.325 105.929 61.895C105.679 61.465 105.334 61.14 104.894 60.92C104.454 60.7 103.974 60.59 103.454 60.59C102.674 60.59 102.009 60.84 101.459 61.34C100.909 61.84 100.604 62.545 100.544 63.455H106.304ZM118.986 68L116.391 63.62H114.456V68H113.406V57.515H116.556C117.726 57.515 118.611 57.795 119.211 58.355C119.821 58.915 120.126 59.65 120.126 60.56C120.126 61.32 119.906 61.97 119.466 62.51C119.036 63.04 118.396 63.385 117.546 63.545L120.246 68H118.986ZM114.456 62.765H116.571C117.391 62.765 118.006 62.565 118.416 62.165C118.836 61.765 119.046 61.23 119.046 60.56C119.046 59.87 118.846 59.34 118.446 58.97C118.046 58.59 117.416 58.4 116.556 58.4H114.456V62.765ZM129.62 63.485C129.62 63.845 129.61 64.12 129.59 64.31H122.795C122.825 64.93 122.975 65.46 123.245 65.9C123.515 66.34 123.87 66.675 124.31 66.905C124.75 67.125 125.23 67.235 125.75 67.235C126.43 67.235 127 67.07 127.46 66.74C127.93 66.41 128.24 65.965 128.39 65.405H129.5C129.3 66.205 128.87 66.86 128.21 67.37C127.56 67.87 126.74 68.12 125.75 68.12C124.98 68.12 124.29 67.95 123.68 67.61C123.07 67.26 122.59 66.77 122.24 66.14C121.9 65.5 121.73 64.755 121.73 63.905C121.73 63.055 121.9 62.31 122.24 61.67C122.58 61.03 123.055 60.54 123.665 60.2C124.275 59.86 124.97 59.69 125.75 59.69C126.53 59.69 127.21 59.86 127.79 60.2C128.38 60.54 128.83 61 129.14 61.58C129.46 62.15 129.62 62.785 129.62 63.485ZM128.555 63.455C128.565 62.845 128.44 62.325 128.18 61.895C127.93 61.465 127.585 61.14 127.145 60.92C126.705 60.7 126.225 60.59 125.705 60.59C124.925 60.59 124.26 60.84 123.71 61.34C123.16 61.84 122.855 62.545 122.795 63.455H128.555ZM134.451 66.98L137.211 59.81H138.321L135.036 68H133.851L130.566 59.81H131.691L134.451 66.98ZM140.269 58.265C140.059 58.265 139.879 58.19 139.729 58.04C139.579 57.89 139.504 57.705 139.504 57.485C139.504 57.265 139.579 57.085 139.729 56.945C139.879 56.795 140.059 56.72 140.269 56.72C140.479 56.72 140.659 56.795 140.809 56.945C140.959 57.085 141.034 57.265 141.034 57.485C141.034 57.705 140.959 57.89 140.809 58.04C140.659 58.19 140.479 58.265 140.269 58.265ZM140.794 59.81V68H139.744V59.81H140.794ZM150.582 63.485C150.582 63.845 150.572 64.12 150.552 64.31H143.757C143.787 64.93 143.937 65.46 144.207 65.9C144.477 66.34 144.832 66.675 145.272 66.905C145.712 67.125 146.192 67.235 146.712 67.235C147.392 67.235 147.962 67.07 148.422 66.74C148.892 66.41 149.202 65.965 149.352 65.405H150.462C150.262 66.205 149.832 66.86 149.172 67.37C148.522 67.87 147.702 68.12 146.712 68.12C145.942 68.12 145.252 67.95 144.642 67.61C144.032 67.26 143.552 66.77 143.202 66.14C142.862 65.5 142.692 64.755 142.692 63.905C142.692 63.055 142.862 62.31 143.202 61.67C143.542 61.03 144.017 60.54 144.627 60.2C145.237 59.86 145.932 59.69 146.712 59.69C147.492 59.69 148.172 59.86 148.752 60.2C149.342 60.54 149.792 61 150.102 61.58C150.422 62.15 150.582 62.785 150.582 63.485ZM149.517 63.455C149.527 62.845 149.402 62.325 149.142 61.895C148.892 61.465 148.547 61.14 148.107 60.92C147.667 60.7 147.187 60.59 146.667 60.59C145.887 60.59 145.222 60.84 144.672 61.34C144.122 61.84 143.817 62.545 143.757 63.455H149.517ZM163.303 59.81L160.738 68H159.688L157.423 61.13L155.158 68H154.093L151.528 59.81H152.593L154.633 66.935L156.928 59.81H157.978L160.243 66.95L162.268 59.81H163.303Z" fill="white"/>
<path d="M271.673 62.75C271.673 61.72 271.898 60.8 272.348 59.99C272.798 59.17 273.413 58.535 274.193 58.085C274.973 57.625 275.843 57.395 276.803 57.395C277.973 57.395 278.973 57.675 279.803 58.235C280.643 58.785 281.253 59.565 281.633 60.575H280.403C280.103 59.865 279.643 59.31 279.023 58.91C278.413 58.51 277.673 58.31 276.803 58.31C276.033 58.31 275.338 58.49 274.718 58.85C274.108 59.21 273.628 59.73 273.278 60.41C272.928 61.08 272.753 61.86 272.753 62.75C272.753 63.64 272.928 64.42 273.278 65.09C273.628 65.76 274.108 66.275 274.718 66.635C275.338 66.995 276.033 67.175 276.803 67.175C277.673 67.175 278.413 66.98 279.023 66.59C279.643 66.19 280.103 65.64 280.403 64.94H281.633C281.253 65.94 280.643 66.715 279.803 67.265C278.963 67.815 277.963 68.09 276.803 68.09C275.843 68.09 274.973 67.865 274.193 67.415C273.413 66.955 272.798 66.32 272.348 65.51C271.898 64.7 271.673 63.78 271.673 62.75ZM287.31 68.12C286.54 68.12 285.845 67.95 285.225 67.61C284.615 67.26 284.13 66.77 283.77 66.14C283.42 65.5 283.245 64.755 283.245 63.905C283.245 63.055 283.425 62.315 283.785 61.685C284.145 61.045 284.635 60.555 285.255 60.215C285.875 59.865 286.57 59.69 287.34 59.69C288.11 59.69 288.805 59.865 289.425 60.215C290.055 60.555 290.545 61.045 290.895 61.685C291.255 62.315 291.435 63.055 291.435 63.905C291.435 64.745 291.255 65.485 290.895 66.125C290.535 66.765 290.04 67.26 289.41 67.61C288.78 67.95 288.08 68.12 287.31 68.12ZM287.31 67.205C287.85 67.205 288.35 67.085 288.81 66.845C289.27 66.595 289.64 66.225 289.92 65.735C290.21 65.235 290.355 64.625 290.355 63.905C290.355 63.185 290.215 62.58 289.935 62.09C289.655 61.59 289.285 61.22 288.825 60.98C288.365 60.73 287.865 60.605 287.325 60.605C286.785 60.605 286.285 60.73 285.825 60.98C285.365 61.22 284.995 61.59 284.715 62.09C284.445 62.58 284.31 63.185 284.31 63.905C284.31 64.625 284.445 65.235 284.715 65.735C284.995 66.225 285.36 66.595 285.81 66.845C286.27 67.085 286.77 67.205 287.31 67.205ZM292.869 63.89C292.869 63.05 293.039 62.315 293.379 61.685C293.719 61.045 294.184 60.555 294.774 60.215C295.374 59.865 296.049 59.69 296.799 59.69C297.519 59.69 298.169 59.865 298.749 60.215C299.329 60.565 299.754 61.02 300.024 61.58V56.9H301.074V68H300.024V66.17C299.774 66.74 299.364 67.21 298.794 67.58C298.224 67.94 297.554 68.12 296.784 68.12C296.034 68.12 295.359 67.945 294.759 67.595C294.169 67.245 293.704 66.75 293.364 66.11C293.034 65.47 292.869 64.73 292.869 63.89ZM300.024 63.905C300.024 63.245 299.889 62.665 299.619 62.165C299.349 61.665 298.979 61.28 298.509 61.01C298.049 60.74 297.539 60.605 296.979 60.605C296.399 60.605 295.879 60.735 295.419 60.995C294.959 61.255 294.594 61.635 294.324 62.135C294.064 62.625 293.934 63.21 293.934 63.89C293.934 64.56 294.064 65.15 294.324 65.66C294.594 66.16 294.959 66.545 295.419 66.815C295.879 67.075 296.399 67.205 296.979 67.205C297.539 67.205 298.049 67.07 298.509 66.8C298.979 66.53 299.349 66.145 299.619 65.645C299.889 65.145 300.024 64.565 300.024 63.905ZM310.881 63.485C310.881 63.845 310.871 64.12 310.851 64.31H304.056C304.086 64.93 304.236 65.46 304.506 65.9C304.776 66.34 305.131 66.675 305.571 66.905C306.011 67.125 306.491 67.235 307.011 67.235C307.691 67.235 308.261 67.07 308.721 66.74C309.191 66.41 309.501 65.965 309.651 65.405H310.761C310.561 66.205 310.131 66.86 309.471 67.37C308.821 67.87 308.001 68.12 307.011 68.12C306.241 68.12 305.551 67.95 304.941 67.61C304.331 67.26 303.851 66.77 303.501 66.14C303.161 65.5 302.991 64.755 302.991 63.905C302.991 63.055 303.161 62.31 303.501 61.67C303.841 61.03 304.316 60.54 304.926 60.2C305.536 59.86 306.231 59.69 307.011 59.69C307.791 59.69 308.471 59.86 309.051 60.2C309.641 60.54 310.091 61 310.401 61.58C310.721 62.15 310.881 62.785 310.881 63.485ZM309.816 63.455C309.826 62.845 309.701 62.325 309.441 61.895C309.191 61.465 308.846 61.14 308.406 60.92C307.966 60.7 307.486 60.59 306.966 60.59C306.186 60.59 305.521 60.84 304.971 61.34C304.421 61.84 304.116 62.545 304.056 63.455H309.816ZM322.499 68L319.904 63.62H317.969V68H316.919V57.515H320.069C321.239 57.515 322.124 57.795 322.724 58.355C323.334 58.915 323.639 59.65 323.639 60.56C323.639 61.32 323.419 61.97 322.979 62.51C322.549 63.04 321.909 63.385 321.059 63.545L323.759 68H322.499ZM317.969 62.765H320.084C320.904 62.765 321.519 62.565 321.929 62.165C322.349 61.765 322.559 61.23 322.559 60.56C322.559 59.87 322.359 59.34 321.959 58.97C321.559 58.59 320.929 58.4 320.069 58.4H317.969V62.765ZM333.132 63.485C333.132 63.845 333.122 64.12 333.102 64.31H326.307C326.337 64.93 326.487 65.46 326.757 65.9C327.027 66.34 327.382 66.675 327.822 66.905C328.262 67.125 328.742 67.235 329.262 67.235C329.942 67.235 330.512 67.07 330.972 66.74C331.442 66.41 331.752 65.965 331.902 65.405H333.012C332.812 66.205 332.382 66.86 331.722 67.37C331.072 67.87 330.252 68.12 329.262 68.12C328.492 68.12 327.802 67.95 327.192 67.61C326.582 67.26 326.102 66.77 325.752 66.14C325.412 65.5 325.242 64.755 325.242 63.905C325.242 63.055 325.412 62.31 325.752 61.67C326.092 61.03 326.567 60.54 327.177 60.2C327.787 59.86 328.482 59.69 329.262 59.69C330.042 59.69 330.722 59.86 331.302 60.2C331.892 60.54 332.342 61 332.652 61.58C332.972 62.15 333.132 62.785 333.132 63.485ZM332.067 63.455C332.077 62.845 331.952 62.325 331.692 61.895C331.442 61.465 331.097 61.14 330.657 60.92C330.217 60.7 329.737 60.59 329.217 60.59C328.437 60.59 327.772 60.84 327.222 61.34C326.672 61.84 326.367 62.545 326.307 63.455H332.067ZM337.964 66.98L340.724 59.81H341.834L338.549 68H337.364L334.079 59.81H335.204L337.964 66.98ZM343.782 58.265C343.572 58.265 343.392 58.19 343.242 58.04C343.092 57.89 343.017 57.705 343.017 57.485C343.017 57.265 343.092 57.085 343.242 56.945C343.392 56.795 343.572 56.72 343.782 56.72C343.992 56.72 344.172 56.795 344.322 56.945C344.472 57.085 344.547 57.265 344.547 57.485C344.547 57.705 344.472 57.89 344.322 58.04C344.172 58.19 343.992 58.265 343.782 58.265ZM344.307 59.81V68H343.257V59.81H344.307ZM354.094 63.485C354.094 63.845 354.084 64.12 354.064 64.31H347.269C347.299 64.93 347.449 65.46 347.719 65.9C347.989 66.34 348.344 66.675 348.784 66.905C349.224 67.125 349.704 67.235 350.224 67.235C350.904 67.235 351.474 67.07 351.934 66.74C352.404 66.41 352.714 65.965 352.864 65.405H353.974C353.774 66.205 353.344 66.86 352.684 67.37C352.034 67.87 351.214 68.12 350.224 68.12C349.454 68.12 348.764 67.95 348.154 67.61C347.544 67.26 347.064 66.77 346.714 66.14C346.374 65.5 346.204 64.755 346.204 63.905C346.204 63.055 346.374 62.31 346.714 61.67C347.054 61.03 347.529 60.54 348.139 60.2C348.749 59.86 349.444 59.69 350.224 59.69C351.004 59.69 351.684 59.86 352.264 60.2C352.854 60.54 353.304 61 353.614 61.58C353.934 62.15 354.094 62.785 354.094 63.485ZM353.029 63.455C353.039 62.845 352.914 62.325 352.654 61.895C352.404 61.465 352.059 61.14 351.619 60.92C351.179 60.7 350.699 60.59 350.179 60.59C349.399 60.59 348.734 60.84 348.184 61.34C347.634 61.84 347.329 62.545 347.269 63.455H353.029ZM366.815 59.81L364.25 68H363.2L360.935 61.13L358.67 68H357.605L355.04 59.81H356.105L358.145 66.935L360.44 59.81H361.49L363.755 66.95L365.78 59.81H366.815Z" fill="white"/>
<path d="M73.5989 174.5H177.5C187.717 174.5 196 182.783 196 193V278C196 288.217 187.717 296.5 177.5 296.5H133.5H73.6922C68.8361 296.5 64.1748 294.591 60.7141 291.184L17.1478 248.299C9.74392 241.01 9.79174 229.056 17.2537 221.827L60.7267 179.713C64.1777 176.369 68.7941 174.5 73.5989 174.5Z" stroke="#E40EB9" stroke-width="3"/>
<path d="M252.5 174.5H356.543C361.27 174.5 365.817 176.309 369.252 179.556L412.579 220.514C420.132 227.653 420.323 239.611 413.003 246.989L369.302 291.03C365.829 294.531 361.102 296.5 356.17 296.5H252.5C242.283 296.5 234 288.217 234 278V193C234 182.783 242.283 174.5 252.5 174.5Z" stroke="#E40EB9" stroke-width="3"/>
<path d="M76.302 238L73.707 233.62H71.772V238H70.722V227.515H73.872C75.042 227.515 75.927 227.795 76.527 228.355C77.137 228.915 77.442 229.65 77.442 230.56C77.442 231.32 77.222 231.97 76.782 232.51C76.352 233.04 75.712 233.385 74.862 233.545L77.562 238H76.302ZM71.772 232.765H73.887C74.707 232.765 75.322 232.565 75.732 232.165C76.152 231.765 76.362 231.23 76.362 230.56C76.362 229.87 76.162 229.34 75.762 228.97C75.362 228.59 74.732 228.4 73.872 228.4H71.772V232.765ZM80.5757 228.37V232.285H84.5507V233.155H80.5757V237.13H85.0007V238H79.5257V227.5H85.0007V228.37H80.5757ZM93.1446 235.51H88.3746L87.4596 238H86.3496L90.1746 227.65H91.3596L95.1696 238H94.0596L93.1446 235.51ZM92.8296 234.64L90.7596 228.97L88.6896 234.64H92.8296ZM99.9598 227.515C101.12 227.515 102.115 227.725 102.945 228.145C103.775 228.565 104.41 229.17 104.85 229.96C105.29 230.75 105.51 231.69 105.51 232.78C105.51 233.86 105.29 234.795 104.85 235.585C104.41 236.365 103.775 236.965 102.945 237.385C102.115 237.795 101.12 238 99.9598 238H96.8548V227.515H99.9598ZM99.9598 237.13C101.42 237.13 102.53 236.75 103.29 235.99C104.06 235.22 104.445 234.15 104.445 232.78C104.445 231.4 104.06 230.325 103.29 229.555C102.53 228.775 101.42 228.385 99.9598 228.385H97.9048V237.13H99.9598ZM117.691 227.65V238H116.641V229.735L112.951 238H112.186L108.496 229.765V238H107.446V227.65H108.556L112.561 236.62L116.566 227.65H117.691ZM121.123 228.37V232.285H125.098V233.155H121.123V237.13H125.548V238H120.073V227.5H125.548V228.37H121.123ZM135.168 229.69C135.938 229.69 136.608 229.87 137.178 230.23C137.748 230.59 138.158 231.045 138.408 231.595V229.81H139.458V238.21C139.458 238.96 139.293 239.625 138.963 240.205C138.643 240.785 138.193 241.23 137.613 241.54C137.033 241.86 136.373 242.02 135.633 242.02C134.583 242.02 133.708 241.77 133.008 241.27C132.318 240.77 131.888 240.09 131.718 239.23H132.753C132.933 239.8 133.273 240.255 133.773 240.595C134.283 240.935 134.903 241.105 135.633 241.105C136.163 241.105 136.638 240.99 137.058 240.76C137.478 240.54 137.808 240.21 138.048 239.77C138.288 239.33 138.408 238.81 138.408 238.21V236.185C138.148 236.745 137.733 237.21 137.163 237.58C136.603 237.94 135.938 238.12 135.168 238.12C134.418 238.12 133.743 237.945 133.143 237.595C132.553 237.245 132.088 236.75 131.748 236.11C131.418 235.47 131.253 234.73 131.253 233.89C131.253 233.05 131.418 232.315 131.748 231.685C132.088 231.045 132.553 230.555 133.143 230.215C133.743 229.865 134.418 229.69 135.168 229.69ZM138.408 233.905C138.408 233.245 138.273 232.665 138.003 232.165C137.733 231.665 137.363 231.28 136.893 231.01C136.433 230.74 135.923 230.605 135.363 230.605C134.783 230.605 134.263 230.735 133.803 230.995C133.343 231.255 132.978 231.635 132.708 232.135C132.448 232.625 132.318 233.21 132.318 233.89C132.318 234.56 132.448 235.15 132.708 235.66C132.978 236.16 133.343 236.545 133.803 236.815C134.263 237.075 134.783 237.205 135.363 237.205C135.923 237.205 136.433 237.07 136.893 236.8C137.363 236.53 137.733 236.145 138.003 235.645C138.273 235.145 138.408 234.565 138.408 233.905ZM149.265 233.485C149.265 233.845 149.255 234.12 149.235 234.31H142.44C142.47 234.93 142.62 235.46 142.89 235.9C143.16 236.34 143.515 236.675 143.955 236.905C144.395 237.125 144.875 237.235 145.395 237.235C146.075 237.235 146.645 237.07 147.105 236.74C147.575 236.41 147.885 235.965 148.035 235.405H149.145C148.945 236.205 148.515 236.86 147.855 237.37C147.205 237.87 146.385 238.12 145.395 238.12C144.625 238.12 143.935 237.95 143.325 237.61C142.715 237.26 142.235 236.77 141.885 236.14C141.545 235.5 141.375 234.755 141.375 233.905C141.375 233.055 141.545 232.31 141.885 231.67C142.225 231.03 142.7 230.54 143.31 230.2C143.92 229.86 144.615 229.69 145.395 229.69C146.175 229.69 146.855 229.86 147.435 230.2C148.025 230.54 148.475 231 148.785 231.58C149.105 232.15 149.265 232.785 149.265 233.485ZM148.2 233.455C148.21 232.845 148.085 232.325 147.825 231.895C147.575 231.465 147.23 231.14 146.79 230.92C146.35 230.7 145.87 230.59 145.35 230.59C144.57 230.59 143.905 230.84 143.355 231.34C142.805 231.84 142.5 232.545 142.44 233.455H148.2ZM155.026 229.66C156.006 229.66 156.806 229.965 157.426 230.575C158.046 231.175 158.356 232.05 158.356 233.2V238H157.321V233.32C157.321 232.43 157.096 231.75 156.646 231.28C156.206 230.81 155.601 230.575 154.831 230.575C154.041 230.575 153.411 230.825 152.941 231.325C152.471 231.825 152.236 232.56 152.236 233.53V238H151.186V229.81H152.236V231.205C152.496 230.705 152.871 230.325 153.361 230.065C153.851 229.795 154.406 229.66 155.026 229.66Z" fill="white"/>
<path d="M264.412 238L261.817 233.62H259.882V238H258.832V227.515H261.982C263.152 227.515 264.037 227.795 264.637 228.355C265.247 228.915 265.552 229.65 265.552 230.56C265.552 231.32 265.332 231.97 264.892 232.51C264.462 233.04 263.822 233.385 262.972 233.545L265.672 238H264.412ZM259.882 232.765H261.997C262.817 232.765 263.432 232.565 263.842 232.165C264.262 231.765 264.472 231.23 264.472 230.56C264.472 229.87 264.272 229.34 263.872 228.97C263.472 228.59 262.842 228.4 261.982 228.4H259.882V232.765ZM275.046 233.485C275.046 233.845 275.036 234.12 275.016 234.31H268.221C268.251 234.93 268.401 235.46 268.671 235.9C268.941 236.34 269.296 236.675 269.736 236.905C270.176 237.125 270.656 237.235 271.176 237.235C271.856 237.235 272.426 237.07 272.886 236.74C273.356 236.41 273.666 235.965 273.816 235.405H274.926C274.726 236.205 274.296 236.86 273.636 237.37C272.986 237.87 272.166 238.12 271.176 238.12C270.406 238.12 269.716 237.95 269.106 237.61C268.496 237.26 268.016 236.77 267.666 236.14C267.326 235.5 267.156 234.755 267.156 233.905C267.156 233.055 267.326 232.31 267.666 231.67C268.006 231.03 268.481 230.54 269.091 230.2C269.701 229.86 270.396 229.69 271.176 229.69C271.956 229.69 272.636 229.86 273.216 230.2C273.806 230.54 274.256 231 274.566 231.58C274.886 232.15 275.046 232.785 275.046 233.485ZM273.981 233.455C273.991 232.845 273.866 232.325 273.606 231.895C273.356 231.465 273.011 231.14 272.571 230.92C272.131 230.7 271.651 230.59 271.131 230.59C270.351 230.59 269.686 230.84 269.136 231.34C268.586 231.84 268.281 232.545 268.221 233.455H273.981ZM278.002 231.61C278.262 231.06 278.672 230.605 279.232 230.245C279.802 229.875 280.477 229.69 281.257 229.69C281.997 229.69 282.662 229.865 283.252 230.215C283.852 230.555 284.317 231.045 284.647 231.685C284.987 232.315 285.157 233.05 285.157 233.89C285.157 234.73 284.987 235.47 284.647 236.11C284.317 236.75 283.852 237.245 283.252 237.595C282.662 237.945 281.997 238.12 281.257 238.12C280.487 238.12 279.817 237.94 279.247 237.58C278.677 237.21 278.262 236.75 278.002 236.2V241.87H276.967V229.81H278.002V231.61ZM284.092 233.89C284.092 233.21 283.957 232.625 283.687 232.135C283.427 231.635 283.067 231.255 282.607 230.995C282.147 230.735 281.627 230.605 281.047 230.605C280.487 230.605 279.972 230.74 279.502 231.01C279.042 231.28 278.677 231.665 278.407 232.165C278.137 232.665 278.002 233.245 278.002 233.905C278.002 234.565 278.137 235.145 278.407 235.645C278.677 236.145 279.042 236.53 279.502 236.8C279.972 237.07 280.487 237.205 281.047 237.205C281.627 237.205 282.147 237.075 282.607 236.815C283.067 236.545 283.427 236.16 283.687 235.66C283.957 235.15 284.092 234.56 284.092 233.89ZM290.674 238.12C289.904 238.12 289.209 237.95 288.589 237.61C287.979 237.26 287.494 236.77 287.134 236.14C286.784 235.5 286.609 234.755 286.609 233.905C286.609 233.055 286.789 232.315 287.149 231.685C287.509 231.045 287.999 230.555 288.619 230.215C289.239 229.865 289.934 229.69 290.704 229.69C291.474 229.69 292.169 229.865 292.789 230.215C293.419 230.555 293.909 231.045 294.259 231.685C294.619 232.315 294.799 233.055 294.799 233.905C294.799 234.745 294.619 235.485 294.259 236.125C293.899 236.765 293.404 237.26 292.774 237.61C292.144 237.95 291.444 238.12 290.674 238.12ZM290.674 237.205C291.214 237.205 291.714 237.085 292.174 236.845C292.634 236.595 293.004 236.225 293.284 235.735C293.574 235.235 293.719 234.625 293.719 233.905C293.719 233.185 293.579 232.58 293.299 232.09C293.019 231.59 292.649 231.22 292.189 230.98C291.729 230.73 291.229 230.605 290.689 230.605C290.149 230.605 289.649 230.73 289.189 230.98C288.729 231.22 288.359 231.59 288.079 232.09C287.809 232.58 287.674 233.185 287.674 233.905C287.674 234.625 287.809 235.235 288.079 235.735C288.359 236.225 288.724 236.595 289.174 236.845C289.634 237.085 290.134 237.205 290.674 237.205ZM304.009 238.105C303.319 238.105 302.709 237.985 302.179 237.745C301.659 237.505 301.249 237.17 300.949 236.74C300.649 236.31 300.489 235.83 300.469 235.3H301.579C301.629 235.81 301.854 236.26 302.254 236.65C302.654 237.03 303.239 237.22 304.009 237.22C304.719 237.22 305.279 237.04 305.689 236.68C306.109 236.31 306.319 235.845 306.319 235.285C306.319 234.835 306.204 234.475 305.974 234.205C305.744 233.925 305.459 233.72 305.119 233.59C304.779 233.45 304.309 233.3 303.709 233.14C303.009 232.95 302.454 232.765 302.044 232.585C301.634 232.405 301.284 232.125 300.994 231.745C300.704 231.365 300.559 230.85 300.559 230.2C300.559 229.66 300.699 229.18 300.979 228.76C301.259 228.33 301.654 227.995 302.164 227.755C302.674 227.515 303.259 227.395 303.919 227.395C304.889 227.395 305.669 227.635 306.259 228.115C306.859 228.585 307.204 229.195 307.294 229.945H306.154C306.084 229.515 305.849 229.135 305.449 228.805C305.049 228.465 304.509 228.295 303.829 228.295C303.199 228.295 302.674 228.465 302.254 228.805C301.834 229.135 301.624 229.59 301.624 230.17C301.624 230.61 301.739 230.965 301.969 231.235C302.199 231.505 302.484 231.71 302.824 231.85C303.174 231.99 303.644 232.14 304.234 232.3C304.914 232.49 305.464 232.68 305.884 232.87C306.304 233.05 306.659 233.33 306.949 233.71C307.239 234.09 307.384 234.6 307.384 235.24C307.384 235.73 307.254 236.195 306.994 236.635C306.734 237.075 306.349 237.43 305.839 237.7C305.329 237.97 304.719 238.105 304.009 238.105ZM310.778 230.695V235.78C310.778 236.28 310.873 236.625 311.063 236.815C311.253 237.005 311.588 237.1 312.068 237.1H313.028V238H311.903C311.163 238 310.613 237.83 310.253 237.49C309.893 237.14 309.713 236.57 309.713 235.78V230.695H308.573V229.81H309.713V227.755H310.778V229.81H313.028V230.695H310.778ZM318.345 238.12C317.575 238.12 316.88 237.95 316.26 237.61C315.65 237.26 315.165 236.77 314.805 236.14C314.455 235.5 314.28 234.755 314.28 233.905C314.28 233.055 314.46 232.315 314.82 231.685C315.18 231.045 315.67 230.555 316.29 230.215C316.91 229.865 317.605 229.69 318.375 229.69C319.145 229.69 319.84 229.865 320.46 230.215C321.09 230.555 321.58 231.045 321.93 231.685C322.29 232.315 322.47 233.055 322.47 233.905C322.47 234.745 322.29 235.485 321.93 236.125C321.57 236.765 321.075 237.26 320.445 237.61C319.815 237.95 319.115 238.12 318.345 238.12ZM318.345 237.205C318.885 237.205 319.385 237.085 319.845 236.845C320.305 236.595 320.675 236.225 320.955 235.735C321.245 235.235 321.39 234.625 321.39 233.905C321.39 233.185 321.25 232.58 320.97 232.09C320.69 231.59 320.32 231.22 319.86 230.98C319.4 230.73 318.9 230.605 318.36 230.605C317.82 230.605 317.32 230.73 316.86 230.98C316.4 231.22 316.03 231.59 315.75 232.09C315.48 232.58 315.345 233.185 315.345 233.905C315.345 234.625 315.48 235.235 315.75 235.735C316.03 236.225 316.395 236.595 316.845 236.845C317.305 237.085 317.805 237.205 318.345 237.205ZM325.434 231.265C325.664 230.755 326.014 230.36 326.484 230.08C326.964 229.8 327.549 229.66 328.239 229.66V230.755H327.954C327.194 230.755 326.584 230.96 326.124 231.37C325.664 231.78 325.434 232.465 325.434 233.425V238H324.384V229.81H325.434V231.265ZM336.569 229.81L331.709 241.855H330.614L332.204 237.955L328.844 229.81H329.999L332.789 236.8L335.489 229.81H336.569ZM339.357 230.695V235.78C339.357 236.28 339.452 236.625 339.642 236.815C339.832 237.005 340.167 237.1 340.647 237.1H341.607V238H340.482C339.742 238 339.192 237.83 338.832 237.49C338.472 237.14 338.292 236.57 338.292 235.78V230.695H337.152V229.81H338.292V227.755H339.357V229.81H341.607V230.695H339.357ZM350.749 233.485C350.749 233.845 350.739 234.12 350.719 234.31H343.924C343.954 234.93 344.104 235.46 344.374 235.9C344.644 236.34 344.999 236.675 345.439 236.905C345.879 237.125 346.359 237.235 346.879 237.235C347.559 237.235 348.129 237.07 348.589 236.74C349.059 236.41 349.369 235.965 349.519 235.405H350.629C350.429 236.205 349.999 236.86 349.339 237.37C348.689 237.87 347.869 238.12 346.879 238.12C346.109 238.12 345.419 237.95 344.809 237.61C344.199 237.26 343.719 236.77 343.369 236.14C343.029 235.5 342.859 234.755 342.859 233.905C342.859 233.055 343.029 232.31 343.369 231.67C343.709 231.03 344.184 230.54 344.794 230.2C345.404 229.86 346.099 229.69 346.879 229.69C347.659 229.69 348.339 229.86 348.919 230.2C349.509 230.54 349.959 231 350.269 231.58C350.589 232.15 350.749 232.785 350.749 233.485ZM349.684 233.455C349.694 232.845 349.569 232.325 349.309 231.895C349.059 231.465 348.714 231.14 348.274 230.92C347.834 230.7 347.354 230.59 346.834 230.59C346.054 230.59 345.389 230.84 344.839 231.34C344.289 231.84 343.984 232.545 343.924 233.455H349.684ZM353.72 226.9V238H352.67V226.9H353.72ZM357.148 226.9V238H356.098V226.9H357.148ZM360.051 228.265C359.841 228.265 359.661 228.19 359.511 228.04C359.361 227.89 359.286 227.705 359.286 227.485C359.286 227.265 359.361 227.085 359.511 226.945C359.661 226.795 359.841 226.72 360.051 226.72C360.261 226.72 360.441 226.795 360.591 226.945C360.741 227.085 360.816 227.265 360.816 227.485C360.816 227.705 360.741 227.89 360.591 228.04C360.441 228.19 360.261 228.265 360.051 228.265ZM360.576 229.81V238H359.526V229.81H360.576ZM366.793 229.66C367.773 229.66 368.573 229.965 369.193 230.575C369.813 231.175 370.123 232.05 370.123 233.2V238H369.088V233.32C369.088 232.43 368.863 231.75 368.413 231.28C367.973 230.81 367.368 230.575 366.598 230.575C365.808 230.575 365.178 230.825 364.708 231.325C364.238 231.825 364.003 232.56 364.003 233.53V238H362.953V229.81H364.003V231.205C364.263 230.705 364.638 230.325 365.128 230.065C365.618 229.795 366.173 229.66 366.793 229.66ZM375.881 229.69C376.651 229.69 377.321 229.87 377.891 230.23C378.461 230.59 378.871 231.045 379.121 231.595V229.81H380.171V238.21C380.171 238.96 380.006 239.625 379.676 240.205C379.356 240.785 378.906 241.23 378.326 241.54C377.746 241.86 377.086 242.02 376.346 242.02C375.296 242.02 374.421 241.77 373.721 241.27C373.031 240.77 372.601 240.09 372.431 239.23H373.466C373.646 239.8 373.986 240.255 374.486 240.595C374.996 240.935 375.616 241.105 376.346 241.105C376.876 241.105 377.351 240.99 377.771 240.76C378.191 240.54 378.521 240.21 378.761 239.77C379.001 239.33 379.121 238.81 379.121 238.21V236.185C378.861 236.745 378.446 237.21 377.876 237.58C377.316 237.94 376.651 238.12 375.881 238.12C375.131 238.12 374.456 237.945 373.856 237.595C373.266 237.245 372.801 236.75 372.461 236.11C372.131 235.47 371.966 234.73 371.966 233.89C371.966 233.05 372.131 232.315 372.461 231.685C372.801 231.045 373.266 230.555 373.856 230.215C374.456 229.865 375.131 229.69 375.881 229.69ZM379.121 233.905C379.121 233.245 378.986 232.665 378.716 232.165C378.446 231.665 378.076 231.28 377.606 231.01C377.146 230.74 376.636 230.605 376.076 230.605C375.496 230.605 374.976 230.735 374.516 230.995C374.056 231.255 373.691 231.635 373.421 232.135C373.161 232.625 373.031 233.21 373.031 233.89C373.031 234.56 373.161 235.15 373.421 235.66C373.691 236.16 374.056 236.545 374.516 236.815C374.976 237.075 375.496 237.205 376.076 237.205C376.636 237.205 377.146 237.07 377.606 236.8C378.076 236.53 378.446 236.145 378.716 235.645C378.986 235.145 379.121 234.565 379.121 233.905Z" fill="white"/>
<line x1="137.5" y1="151.266" x2="294.033" y2="151.266" stroke="#05E8ED" stroke-width="2"/>
<line x1="214.766" y1="230.533" x2="214.766" y2="73.9999" stroke="#05E8ED" stroke-width="2"/>
</svg>
